<svg id="Layer_1" data-name="Layer 1" xmlns="http://www.w3.org/2000/svg" viewBox="0 0 64 64"><defs><style>.cls-1{fill:#fff;}</style></defs><title>icon-faq</title><path id="faq" class="cls-1" d="M28.52,40.48V38.39A13.07,13.07,0,0,1,28.71,36a8.84,8.84,0,0,1,.6-2,8.56,8.56,0,0,1,1.1-1.81,17.2,17.2,0,0,1,1.73-1.87L34.61,28a10.12,10.12,0,0,0,1.78-2.08,5.06,5.06,0,0,0,.74-2.8,5.09,5.09,0,0,0-1.35-3.59A4.93,4.93,0,0,0,32,18.1a5.39,5.39,0,0,0-2.28.47,5.53,5.53,0,0,0-1.76,1.26,5.42,5.42,0,0,0-1.12,1.84,7.17,7.17,0,0,0-.44,2.14l-6.75-.6A13.81,13.81,0,0,1,21,18.51,11.29,11.29,0,0,1,23.8,15a11.94,11.94,0,0,1,3.9-2.17,14.66,14.66,0,0,1,4.72-.74,14.39,14.39,0,0,1,4.47.69,11.19,11.19,0,0,1,3.73,2,9.56,9.56,0,0,1,2.55,3.32,10.53,10.53,0,0,1,.93,4.55,11,11,0,0,1-.38,3.07,9,9,0,0,1-1.1,2.41,13,13,0,0,1-1.73,2.11q-1,1-2.28,2.11-1.1.93-1.78,1.65a7.54,7.54,0,0,0-1.1,1.43A5.06,5.06,0,0,0,35.16,37a10.61,10.61,0,0,0-.16,2v1.43H28.52Zm-1.1,7.63a4.07,4.07,0,0,1,1.29-3,4.27,4.27,0,0,1,3.1-1.26A4.41,4.41,0,0,1,34.88,45a3.87,3.87,0,0,1,1.32,3,4.07,4.07,0,0,1-1.29,3,4.27,4.27,0,0,1-3.1,1.26,4.32,4.32,0,0,1-1.67-.33,4.77,4.77,0,0,1-1.4-.88,4.05,4.05,0,0,1-1-1.32A3.85,3.85,0,0,1,27.42,48.1Z"/><path id="circle" class="cls-1" d="M32,2A30,30,0,1,1,2,32,30,30,0,0,1,32,2m0-2A32,32,0,1,0,64,32,32,32,0,0,0,32,0h0Z"/></svg>