<svg id="Layer_1" data-name="Layer 1" xmlns="http://www.w3.org/2000/svg" viewBox="0 0 64 64"><defs><style>.cls-1{fill:#fff;}</style></defs><title>icon-score</title><path id="score" class="cls-1" d="M14.09,18A4.23,4.23,0,0,1,14.6,18h5.61V14.79H44.86v3.16h5.86c0,0.7,0,1.34,0,2a23.14,23.14,0,0,1-1.93,7.75A15.64,15.64,0,0,1,42.64,35a10.09,10.09,0,0,1-3.56,1.33,1.44,1.44,0,0,0-.69.39c-0.36.34-.67,0.73-1,1.1v2.49H35v6.21h2.45V49h2.45v4.92H25.14V49h2.42V46.49H30V40.27H27.65a6.12,6.12,0,0,1,.08-2.56c-0.4-.41-0.8-0.82-1.2-1.22a0.58,0.58,0,0,0-.3-0.16c-3.85-.58-6.54-2.85-8.62-6a20.35,20.35,0,0,1-3.18-8.53c-0.15-1-.23-2.09-0.35-3.14Q14.09,18.37,14.09,18Zm2.65,2.41a3.38,3.38,0,0,0,0,.39,19.65,19.65,0,0,0,2.53,7.65A11.9,11.9,0,0,0,23.77,33c0.13,0.07.27,0.12,0.49,0.23a36.3,36.3,0,0,1-3.76-12.79H16.74ZM40.86,33.1c4.57-2.24,7-8.4,7.28-12.68H44.56A36.42,36.42,0,0,1,40.86,33.1Z"/><path id="circle" class="cls-1" d="M32,2A30,30,0,1,1,2,32,30,30,0,0,1,32,2m0-2A32,32,0,1,0,64,32,32,32,0,0,0,32,0h0Z"/></svg>