<svg id="Layer_1" data-name="Layer 1" xmlns="http://www.w3.org/2000/svg" viewBox="0 0 64 64"><defs><style>.cls-1{fill:#fff;}</style></defs><title>icon-link</title><g id="link"><path class="cls-1" d="M29,30.54a22.13,22.13,0,0,0,2.12,3,5,5,0,0,0,7.28,0q2.62-2.5,5.12-5.13a5.1,5.1,0,0,0-.29-7.31,5.13,5.13,0,0,0-7.32-.29c-1.05,1-2,2-3.08,3a1,1,0,0,1-.74.33,11.47,11.47,0,0,0-6.16.18c0.59-.72,1-1.28,1.45-1.75,1.84-1.85,3.64-3.75,5.57-5.5a9.77,9.77,0,0,1,13.17.19c4,3.77,4.73,9.1,1.7,13.34a22.66,22.66,0,0,1-2.41,2.63c-1.35,1.36-2.67,2.75-4.1,4a9.8,9.8,0,0,1-14-.89,21.1,21.1,0,0,1-1.94-2.88,0.83,0.83,0,0,1-.06-0.74C26.33,31.61,27.45,30.5,29,30.54Z"/><path class="cls-1" d="M34.71,34.14a6.06,6.06,0,0,0-2.11-3.32,5.05,5.05,0,0,0-6.75.08c-1.85,1.76-3.67,3.56-5.41,5.42a5.1,5.1,0,0,0,.38,7.25,5.13,5.13,0,0,0,7.26.31c1.08-1,2.09-2.08,3.14-3.1a1,1,0,0,1,.67-0.33,11.37,11.37,0,0,0,6.21-.16c-0.55.67-.91,1.19-1.35,1.64-1.88,1.89-3.71,3.83-5.68,5.62a9.81,9.81,0,0,1-13.18-.21,10.11,10.11,0,0,1-3.52-7.19,9.76,9.76,0,0,1,3-7.51c1.6-1.62,3.2-3.23,4.83-4.83C27.4,22.68,35.44,24.4,38.66,31a0.86,0.86,0,0,1-.22,1.15C37,33.68,36.38,34,34.71,34.14Z"/></g><path id="circle" class="cls-1" d="M32,2A30,30,0,1,1,2,32,30,30,0,0,1,32,2m0-2A32,32,0,1,0,64,32,32,32,0,0,0,32,0h0Z"/></svg>