<?xml version="1.0" encoding="utf-8"?>
<!-- Generator: Adobe Illustrator 19.2.1, SVG Export Plug-In . SVG Version: 6.00 Build 0)  -->
<svg version="1.1" id="Layer_2" xmlns="http://www.w3.org/2000/svg" xmlns:xlink="http://www.w3.org/1999/xlink" x="0px" y="0px"
	 viewBox="0 0 175 175" style="enable-background:new 0 0 175 175;" xml:space="preserve">
<style type="text/css">
	.st0{fill:#FFFFFF;}
</style>
<path id="path22" class="st0" d="M173,31.7c-6.5,3.5-13.4,6-20.6,7.4c7.3-5.2,12.5-12.8,14.6-21.5c-6.9,4.8-14.5,8.4-22.6,10.6
	c-15-13.7-38.3-12.7-52,2.3c-8.9,9.6-11.8,23.3-8,35.8C54.7,67,26.3,55.1,5.9,33.6c-8.4,17.5-1.9,38.5,15,48.1
	C15.1,82,9.2,80.8,4,78.3c0,0.1,0,0.3,0,0.4c1.3,17.5,14.7,31.6,32,33.7c-5.3,1.9-10.9,2.5-16.5,1.8c5.9,14.6,20.4,23.8,36.1,22.9
	c-12.3,11.1-27.9,17.9-44.3,19.1c-2.9,0.2-5.9,0.2-8.8,0.1c17.6,9.5,37.5,13.7,57.4,12.2c67.4-5,100.1-63.6,96.5-112.1
	c-0.2-1.6-0.2-3.1-0.5-4.7C162.8,46.4,168.6,39.5,173,31.7"/>
</svg>
